<svg xmlns="http://www.w3.org/2000/svg" viewBox="0 0 1500 500" width="1500" height="500">
  <defs>
    <radialGradient id="glow" cx="50%" cy="50%" r="50%">
      <stop offset="0%" stop-color="#161b22"/>
      <stop offset="100%" stop-color="#0a0a0a"/>
    </radialGradient>
    <radialGradient id="aura" cx="50%" cy="45%" r="35%">
      <stop offset="0%" stop-color="#1f6feb" stop-opacity="0.15"/>
      <stop offset="50%" stop-color="#1f6feb" stop-opacity="0.05"/>
      <stop offset="100%" stop-color="#0a0a0a" stop-opacity="0"/>
    </radialGradient>
    <linearGradient id="textGrad" x1="0%" y1="0%" x2="100%" y2="0%">
      <stop offset="0%" stop-color="#8b949e"/>
      <stop offset="50%" stop-color="#f0f6fc"/>
      <stop offset="100%" stop-color="#8b949e"/>
    </linearGradient>
    <linearGradient id="subtitleGrad" x1="0%" y1="0%" x2="100%" y2="0%">
      <stop offset="0%" stop-color="#388bfd"/>
      <stop offset="50%" stop-color="#79c0ff"/>
      <stop offset="100%" stop-color="#388bfd"/>
    </linearGradient>
  </defs>
  <rect width="1500" height="500" fill="#0d1117"/>
  <rect width="1500" height="500" fill="url(#glow)"/>
  <g opacity="0.03">
    <pattern id="grid" width="40" height="40" patternUnits="userSpaceOnUse">
      <path d="M 40 0 L 0 0 0 40" fill="none" stroke="#c9d1d9" stroke-width="0.5"/>
    </pattern>
    <rect width="1500" height="500" fill="url(#grid)"/>
  </g>
  <g fill="#58a6ff" opacity="0.3">
    <circle cx="180" cy="70" r="1.5"/><circle cx="320" cy="140" r="1"/>
    <circle cx="480" cy="55" r="1.5"/><circle cx="620" cy="110" r="1"/>
    <circle cx="900" cy="80" r="1.3"/><circle cx="1080" cy="130" r="1"/>
    <circle cx="1250" cy="65" r="1.5"/><circle cx="1380" cy="150" r="1"/>
    <circle cx="90" cy="180" r="0.8"/><circle cx="1420" cy="220" r="0.8"/>
    <circle cx="250" cy="380" r="0.8"/><circle cx="1300" cy="360" r="0.8"/>
  </g>
  <ellipse cx="750" cy="220" rx="200" ry="180" fill="url(#aura)"/>
  <g transform="translate(760, 290) scale(3.2)" opacity="0.08">
    <path d="M0-33 C-18.2-33-33-18.2-33 0 C-33 10.6-27.5 19.7-19 24.8 C-17.8 25.4-17.3 24.8-17.3 24.2 C-17.3 23.7-17.3 22.1-17.3 20.1 C-24.3 21.4-26.4-10.2-26.4-10.2 C-27.5-12.7-28.7-13.7-28.7-13.7 C-30.9-15.2-28.5-15.1-28.5-15.1 C-26-15-24.6-12.7-24.6-12.7 C-22.5-9.1-19-10.1-17.4-10.8 C-17.2-12.4-16.5-13.3-15.8-13.6 C-23.2-14-31-17.2-31-29.8 C-31-32.7-29.8-35.1-28.1-37 C-28.4-37.5-29.4-40.1-27.8-43.6 C-27.8-43.6-25.2-44.2-17.8-40.9 C-14.5-41.7-10.8-42.1-7-42.1 C-3.3-42.1 0.4-41.7 3.7-40.9 C11.1-44.2 13.8-43.6 13.8-43.6 C15.3-40.1 14.3-37.5 14-37 C15.8-35.1 17-32.7 17-29.8 C17-17.2 9.2-14 1.7-13.6 C2.6-12.8 3.5-11.4 3.5-9.3 C3.5-6.0 3.5-3.4 3.5 24.2 C3.5 24.8 3.9 25.5 5.2 24.8 C13.5 19.7 19 10.6 19 0 C19-18.2-4.1-33-22.3-33Z" fill="#c9d1d9"/>
  </g>
  <g transform="translate(760, 305) scale(1.8)" opacity="0.2">
    <path d="M0-33 C-18.2-33-33-18.2-33 0 C-33 10.6-27.5 19.7-19 24.8 C-17.8 25.4-17.3 24.8-17.3 24.2 C-17.3 23.7-17.3 22.1-17.3 20.1 C-24.3 21.4-26.4-10.2-26.4-10.2 C-27.5-12.7-28.7-13.7-28.7-13.7 C-30.9-15.2-28.5-15.1-28.5-15.1 C-26-15-24.6-12.7-24.6-12.7 C-22.5-9.1-19-10.1-17.4-10.8 C-17.2-12.4-16.5-13.3-15.8-13.6 C-23.2-14-31-17.2-31-29.8 C-31-32.7-29.8-35.1-28.1-37 C-28.4-37.5-29.4-40.1-27.8-43.6 C-27.8-43.6-25.2-44.2-17.8-40.9 C-14.5-41.7-10.8-42.1-7-42.1 C-3.3-42.1 0.4-41.7 3.7-40.9 C11.1-44.2 13.8-43.6 13.8-43.6 C15.3-40.1 14.3-37.5 14-37 C15.8-35.1 17-32.7 17-29.8 C17-17.2 9.2-14 1.7-13.6 C2.6-12.8 3.5-11.4 3.5-9.3 C3.5-6.0 3.5-3.4 3.5 24.2 C3.5 24.8 3.9 25.5 5.2 24.8 C13.5 19.7 19 10.6 19 0 C19-18.2-4.1-33-22.3-33Z" fill="#c9d1d9"/>
  </g>
  <g transform="translate(750, 190)">
    <ellipse cx="0" cy="30" rx="100" ry="85" fill="none" stroke="#58a6ff" stroke-width="1" opacity="0.08"/>
    <ellipse cx="0" cy="30" rx="130" ry="110" fill="none" stroke="#58a6ff" stroke-width="0.6" opacity="0.05"/>
    <circle cx="0" cy="-55" r="22" fill="#21262d" stroke="#8b949e" stroke-width="1.5"/>
    <rect x="-7" y="-34" width="14" height="10" fill="#21262d"/>
    <path d="M-28-26 Q-35-5 -40 15 Q-40 28 -35 35 L35 35 Q40 28 40 15 Q35-5 28-26 Q16-36 0-40 Q-16-36 -28-26Z" fill="#21262d" stroke="#8b949e" stroke-width="1.5"/>
    <path d="M-35 35 Q-50 48 -68 62 Q-72 72 -72 80 L72 80 Q72 72 68 62 Q50 48 35 35Z" fill="#21262d" stroke="#8b949e" stroke-width="1.3"/>
    <path d="M-72 75 Q-60 90 -40 95 Q-20 100 0 95 Q20 100 40 95 Q60 90 72 75 Q65 102 45 110 Q22 116 0 112 Q-22 116 -45 110 Q-65 102 -72 75Z" fill="#21262d" stroke="#8b949e" stroke-width="1.3"/>
    <ellipse cx="-18" cy="48" rx="12" ry="7" fill="#21262d" stroke="#8b949e" stroke-width="1"/>
    <ellipse cx="18" cy="48" rx="12" ry="7" fill="#21262d" stroke="#8b949e" stroke-width="1"/>
    <path d="M-18-30 Q-22-20 -22-10 L22-10 Q22-20 18-30 Q10-42 0-45 Q-10-42 -18-30Z" fill="none" stroke="#8b949e" stroke-width="0.8" opacity="0.5"/>
    <circle cx="0" cy="-55" r="3" fill="#58a6ff" opacity="0.5"/>
    <line x1="-6" y1="-50" x2="6" y2="-50" stroke="#8b949e" stroke-width="0.5" opacity="0.3"/>
  </g>
  <text x="750" y="430" text-anchor="middle" font-family="'Segoe UI', 'Helvetica Neue', Arial, sans-serif" font-size="36" font-weight="700" fill="url(#textGrad)" letter-spacing="10">SOUVIK SARKER</text>
  <text x="750" y="464" text-anchor="middle" font-family="'Segoe UI', 'Helvetica Neue', Arial, sans-serif" font-size="13" font-weight="400" fill="url(#subtitleGrad)" letter-spacing="5" opacity="0.85">CYBERSECURITY  ·  AI  ·  EDGE COMPUTING  ·  FULL-STACK DEV</text>
  <line x1="560" y1="482" x2="940" y2="482" stroke="#21262d" stroke-width="0.8"/>
  <circle cx="720" cy="489" r="1.5" fill="#58a6ff" opacity="0.4"/>
  <circle cx="750" cy="489" r="2" fill="#58a6ff" opacity="0.6"/>
  <circle cx="780" cy="489" r="1.5" fill="#58a6ff" opacity="0.4"/>
</svg>
